<?xml version="1.0" encoding="utf-8"?>
<!-- Generator: Adobe Illustrator 16.0.0, SVG Export Plug-In . SVG Version: 6.00 Build 0)  -->
<!DOCTYPE svg PUBLIC "-//W3C//DTD SVG 1.1//EN" "http://www.w3.org/Graphics/SVG/1.1/DTD/svg11.dtd">
<svg version="1.1" id="Layer_1" xmlns="http://www.w3.org/2000/svg" xmlns:xlink="http://www.w3.org/1999/xlink" x="0px" y="0px"
	 width="639px" height="657px" viewBox="61.5 152.5 639 657" enable-background="new 61.5 152.5 639 657" xml:space="preserve">
<path fill="#C05447" d="M201,323l0.6-0.6c0,0,0,0-0.6,0V323z"/>
<g>
	
		<image overflow="visible" opacity="0.6" width="541" height="611" xlink:href="3BA6FBBAA9BC430A.png"  transform="matrix(1 0 0 1 121.5 177.5)">
	</image>
	<g>
		<g>
			<rect x="183" y="411" fill="#E6E6E5" width="396" height="312"/>
			<rect x="183" y="411" fill="#CDCCCC" width="396" height="12"/>
			<rect x="555" y="411" fill="#CDCCCC" width="24" height="312"/>
			<rect x="165" y="327" fill="#E6E6E5" width="432" height="84"/>
			<rect x="573" y="327" fill="#CDCCCC" width="24" height="84"/>
			<rect x="309" y="327" fill="#CD584C" width="48" height="396"/>
			<rect x="309" y="411" fill="#C05447" width="48" height="12"/>
			<rect x="405" y="327" fill="#CD584C" width="48" height="396"/>
			<rect x="405" y="411" fill="#C05447" width="48" height="12"/>
			<path fill="#B44F43" d="M381,317.4c-114-11.4-152.4-46.8-160.2-73.8L198,303c0,39,136.2,27,159,27h24
				C381,330,381,323.4,381,317.4z"/>
			<path fill="#CD584C" d="M381,320.4c-58.2,18-124.2-63-183-18v0.6l23.4-60c0,0,15.6-21.6,34.2-21.6c46.2,0,66,78,126,78
				C381,309,381,320.4,381,320.4L381,320.4z"/>
			<path fill="#B44F43" d="M381,317.4c114-11.4,152.4-46.8,160.2-73.8L564,303c0,39-136.2,27-159,27h-24
				C381,330,381,323.4,381,317.4z"/>
			<path fill="#CD584C" d="M381,320.4c58.2,18,124.2-63,183-18v0.6l-23.4-60c0,0-15.6-21.6-34.199-21.6c-46.2,0-66,78-126,78
				C381,309,381,320.4,381,320.4L381,320.4z"/>
			<path fill="#CD584C" d="M411,309c0,10.2-7.8,18-18,18h-24c-10.2,0-18-7.8-18-18v-12c0-10.2,7.8-18,18-18h24c10.2,0,18,7.8,18,18
				V309z"/>
			<path fill="#C05447" d="M411,285c0-3.6-2.4-6-6-6l0,0c-3.6,0-6,2.4-6,6v36c0,3.6,2.4,6,6,6l0,0c3.6,0,6-2.4,6-6V285z"/>
		</g>
	</g>
</g>
</svg>
